<svg width="658" height="228" viewBox="0 0 658 228" fill="none" xmlns="http://www.w3.org/2000/svg">
<path d="M137 72V88.1599H111.686V162H92.2229V88.1599H66V72H137Z" fill="#0023AF"/>
<path d="M195 98.1702V160.83C195 161.282 194.628 161.644 194.164 161.644H176.948C176.483 161.644 176.112 161.282 176.112 160.83V153.839C176.112 153.059 175.113 152.731 174.613 153.33C170.106 158.722 164.228 162 155.701 162C135.919 162 124 147.193 124 128.689C124 110.186 135.036 96 155.318 96C163.171 96 170.094 99.3797 174.648 104.251C175.171 104.805 176.112 104.466 176.112 103.72V98.1702C176.112 97.7181 176.483 97.3564 176.948 97.3564H194.164C194.628 97.3564 195 97.7181 195 98.1702ZM163.763 146.661C171.082 145.158 176.623 139.506 176.623 129.797C176.623 118.075 169.397 110.92 159.128 110.92C148.011 110.92 142.11 120.223 142.981 130.848C143.853 141.473 153.448 148.786 163.763 146.661Z" fill="#0023AF"/>
<path d="M319 98.1702V160.83C319 161.282 318.644 161.644 318.199 161.644H301.711C301.266 161.644 300.91 161.282 300.91 160.83V153.839C300.91 153.059 299.953 152.731 299.474 153.33C295.158 158.722 289.528 162 281.362 162C262.415 162 251 147.193 251 128.689C251 110.186 261.569 96 280.995 96C288.516 96 295.147 99.3797 299.508 104.251C300.009 104.805 300.91 104.466 300.91 103.72V98.1702C300.91 97.7181 301.266 97.3564 301.711 97.3564H318.199C318.644 97.3564 319 97.7181 319 98.1702ZM289.083 146.661C296.092 145.158 301.399 139.506 301.399 129.797C301.399 118.075 294.479 110.92 284.644 110.92C273.997 110.92 268.345 120.223 269.179 130.848C270.014 141.473 279.204 148.786 289.083 146.661Z" fill="#0023AF"/>
<path d="M225.797 106.522C225.797 107.194 226.783 107.37 227.068 106.742C230.642 98.7214 239.014 96 244.072 96C246.067 96 246.791 96.0992 248.454 96.3856C248.763 96.4407 249 96.6941 249 96.9916V113.397C249 113.783 248.62 114.069 248.204 113.992C245.628 113.507 242.588 113.309 240.83 113.309C233.575 113.309 226.32 117.275 226.32 125.451V161.383C226.32 161.725 226.023 162 225.655 162H207.665C207.297 162 207 161.725 207 161.383V97.9391C207 97.5976 207.297 97.3221 207.665 97.3221H223.232C224.645 97.3221 225.797 98.3799 225.797 99.702V106.522Z" fill="#0023AF"/>
<path d="M351 66V108.905L330.908 132V86.7157H287L306.672 66H351Z" fill="#FFE01B"/>
<path d="M590.653 100.354V100.854V110.176V110.676H590.153H578.417M590.653 100.354L583.705 161.293M590.653 100.354H590.153H578.417V86.5601V86.0601H577.917H566.303H565.803V86.5601V100.354M590.653 100.354H565.803M578.417 110.676V142.998C578.417 145.215 578.751 146.804 579.356 147.83C579.98 148.86 580.764 149.541 581.705 149.91C582.731 150.276 583.85 150.461 585.064 150.461C585.975 150.461 586.759 150.397 587.42 150.275C588.119 150.146 588.66 150.043 589.045 149.966L589.526 149.869L589.631 150.349L591.729 159.943L591.82 160.363L591.42 160.517C590.71 160.79 589.723 161.055 588.473 161.315C587.185 161.61 585.595 161.767 583.712 161.793M578.417 110.676H577.917V110.176M578.417 110.676L577.917 110.176M583.712 161.793L583.705 161.293M583.712 161.793C583.712 161.793 583.713 161.793 583.713 161.793L583.705 161.293M583.712 161.793C580.59 161.846 577.672 161.29 574.961 160.121C572.233 158.944 570.023 157.121 568.338 154.661C566.637 152.177 565.803 149.082 565.803 145.406V110.676M583.705 161.293C580.649 161.345 577.801 160.801 575.16 159.662C572.518 158.522 570.382 156.761 568.751 154.379C567.119 151.997 566.303 149.006 566.303 145.406V110.676M565.803 110.676H566.303M565.803 110.676H557.564H557.064V110.176V100.854V100.354H557.564H565.803M565.803 110.676V100.354M566.303 110.676V110.176H565.803L566.303 110.676ZM577.917 110.176H578.417H577.917Z" fill="#0023AF" stroke="#0023AF"/>
<path d="M549.986 115.819L549.455 115.913L538.929 117.778L538.501 117.853L538.366 117.441C537.946 116.155 537.276 114.924 536.351 113.749L536.347 113.744L536.347 113.744C535.47 112.598 534.266 111.648 532.72 110.899C531.202 110.165 529.275 109.784 526.917 109.784C523.703 109.784 521.062 110.504 518.961 111.913L518.957 111.915L518.957 111.915C516.873 113.288 515.881 115.02 515.881 117.13C515.881 118.982 516.558 120.443 517.913 121.561C519.3 122.705 521.593 123.68 524.855 124.45C524.856 124.45 524.856 124.451 524.857 124.451L534.331 126.625L534.332 126.625C539.87 127.905 544.06 129.891 546.844 132.621C549.644 135.368 551.033 138.933 551.033 143.271C551.033 146.948 549.965 150.238 547.828 153.123C545.722 155.976 542.784 158.202 539.04 159.811M549.986 115.819L518.682 111.498C516.481 112.948 515.381 114.825 515.381 117.13C515.381 119.124 516.119 120.729 517.595 121.946C519.071 123.163 521.453 124.16 524.742 124.937L534.219 127.112C539.709 128.381 543.801 130.336 546.494 132.978C549.187 135.619 550.533 139.05 550.533 143.271C550.533 146.844 549.497 150.03 547.426 152.826C545.38 155.597 542.519 157.772 538.842 159.352C535.19 160.931 530.957 161.721 526.14 161.721C519.459 161.721 514.008 160.297 509.787 157.448C505.698 154.664 503.14 150.749 502.114 145.704L502.094 145.707L502.019 145.213L502.511 145.124C502.512 145.128 502.513 145.133 502.513 145.138L513.244 143.504C513.944 146.43 515.381 148.644 517.556 150.146M549.986 115.819L549.852 115.297C548.634 110.531 546.125 106.715 542.327 103.873M549.986 115.819L542.327 103.873M539.04 159.811C539.04 159.811 539.039 159.811 539.039 159.811L538.842 159.352L539.04 159.811C539.04 159.811 539.04 159.811 539.04 159.811ZM539.04 159.811C535.314 161.422 531.011 162.221 526.14 162.221C519.39 162.221 513.834 160.782 509.508 157.863L509.506 157.862C505.168 154.908 502.508 150.709 501.527 145.302L501.435 144.796L501.944 144.719L513.169 143.01L513.624 142.94L513.731 143.388C514.405 146.211 515.78 148.311 517.838 149.733M517.838 149.733C517.838 149.733 517.837 149.733 517.837 149.732L517.556 150.146M517.838 149.733C517.839 149.734 517.839 149.734 517.84 149.735L517.556 150.146M517.838 149.733C519.907 151.137 522.635 151.86 526.062 151.86C529.803 151.86 532.735 151.084 534.904 149.581M517.556 150.146C519.731 151.622 522.567 152.36 526.062 152.36C529.869 152.36 532.912 151.57 535.19 149.991M535.19 149.991L534.902 149.582C534.903 149.582 534.903 149.581 534.904 149.581M535.19 149.991C537.469 148.385 538.609 146.43 538.609 144.125C538.609 142.261 537.909 140.694 536.511 139.426C535.139 138.157 533.028 137.199 530.18 136.551L530.073 137.04L530.071 137.039C532.877 137.677 534.89 138.608 536.172 139.793L536.175 139.796C537.47 140.971 538.109 142.404 538.109 144.125C538.109 146.232 537.08 148.047 534.904 149.581M535.19 149.991L534.906 149.58C534.905 149.58 534.905 149.58 534.904 149.581M514.679 101.871C511.14 103.377 508.346 105.486 506.318 108.208C504.281 110.942 503.267 114.13 503.267 117.751C503.267 122.111 504.627 125.748 507.367 128.623L507.369 128.624C510.129 131.492 514.351 133.544 519.97 134.825L519.974 134.826L530.069 137.039L514.677 101.872C514.678 101.872 514.678 101.872 514.679 101.871ZM514.679 101.871C518.221 100.338 522.265 99.5781 526.8 99.5781C533.315 99.5781 538.509 100.99 542.327 103.873M514.679 101.871L542.327 103.873" fill="#0023AF" stroke="#0023AF"/>
<path d="M462.181 160.516V161.016H462.681H474.295H474.795V160.516V124.082C474.795 121.576 475.396 119.364 476.586 117.43L476.587 117.428C477.783 115.459 479.4 113.929 481.446 112.831L481.448 112.83C483.515 111.709 485.878 111.143 488.55 111.143C489.716 111.143 490.882 111.231 492.049 111.409L492.049 111.409L492.059 111.41C493.251 111.566 494.048 111.705 494.476 111.824L495.11 112V111.342V100.233V99.7964L494.677 99.7374C494.087 99.6569 493.281 99.5913 492.266 99.5393C491.277 99.4872 490.413 99.4609 489.677 99.4609C486.087 99.4609 482.855 100.42 479.998 102.342C477.436 104.059 475.571 106.357 474.407 109.224V100.854V100.354H473.907H462.681H462.181V100.854V160.516Z" fill="#0023AF" stroke="#0023AF"/>
<path d="M435.756 89.9893L435.756 89.9892C434.239 88.5274 433.467 86.7681 433.467 84.735C433.467 82.6779 434.238 80.9162 435.76 79.4777L435.756 89.9893ZM435.756 89.9893L435.763 89.9956M435.756 89.9893L435.763 89.9956M435.763 89.9956C437.308 91.4299 439.165 92.149 441.308 92.149C443.451 92.149 445.298 91.4297 446.818 89.9925L446.818 89.9923M435.763 89.9956L446.818 89.9923M446.818 89.9923C448.362 88.5314 449.149 86.7712 449.149 84.735C449.149 82.6762 448.364 80.9147 446.818 79.4776C445.299 78.0154 443.453 77.2822 441.308 77.2822C439.162 77.2822 437.304 78.0162 435.76 79.4775L446.818 89.9923ZM434.943 160.517V161.017H435.443H447.057H447.557V160.517V100.855V100.355H447.057H435.443H434.943V100.855V160.517Z" fill="#0023AF" stroke="#0023AF"/>
<path d="M371.785 160.517V161.017H372.285H384.287H384.787V160.517V126.331H418.08H418.58V125.831V115.538V115.038H418.08H384.787V91.8001H421.615H422.115V91.3001V80.968V80.468H421.615H372.285H371.785V80.968V160.517Z" fill="#0023AF" stroke="#0023AF"/>
</svg>
