<svg width="28" height="29" viewBox="0 0 28 29" fill="none" xmlns="http://www.w3.org/2000/svg">
<path d="M13.344 2.33057C14.619 2.33057 15.34 2.51557 16.187 3.34557L16.285 3.44407L22.754 10.0181C23.53 10.8131 23.776 11.4001 23.8375 12.4356L23.8495 12.7041L23.8545 12.9936L23.8555 23.7876C23.8555 26.1766 22.696 27.4061 20.3665 27.4541L20.2225 27.4556H7.77747C5.41147 27.4556 4.19397 26.2851 4.14597 23.9331L4.14447 23.7876V6.01007C4.14447 3.62157 5.31497 2.38057 7.63397 2.33207L7.77747 2.33057H13.344ZM13.086 4.21707H7.88297C6.70297 4.21707 6.07297 4.84307 6.03297 5.93457L6.03097 6.04557V23.7526C6.03097 24.8866 6.62397 25.5266 7.75597 25.5666L7.87097 25.5691H20.129C21.3085 25.5691 21.928 24.9651 21.967 23.8641L21.969 23.7526V13.2291H15.289C13.8775 13.2291 13.129 12.5436 13.0875 11.1506L13.086 11.0256V4.21707ZM9.06297 17.3581C9.49447 17.3581 9.84397 17.7081 9.84397 18.1396V23.6096C9.84397 24.0406 9.49397 24.3906 9.06297 24.3906H8.28147C7.84997 24.3906 7.49997 24.0406 7.49997 23.6091V18.1391C7.49997 17.7081 7.84997 17.3581 8.28147 17.3581H9.06297ZM16.0955 19.7021C16.527 19.7021 16.8765 20.0521 16.8765 20.4836V23.6091C16.8765 24.0406 16.5265 24.3906 16.0955 24.3906H15.314C14.8825 24.3906 14.5325 24.0406 14.5325 23.6091V20.4841C14.5325 20.0521 14.8825 19.7021 15.314 19.7021H16.0955ZM12.579 15.0141C13.0105 15.0141 13.3605 15.3641 13.3605 15.7951V23.6091C13.3605 24.0406 13.0105 24.3906 12.579 24.3906H11.7975C11.366 24.3906 11.0165 24.0406 11.0165 23.6091V15.7956C11.0165 15.3641 11.3665 15.0146 11.7975 15.0146L12.579 15.0141ZM14.8555 4.58057V10.8031C14.8555 11.2446 15.0215 11.4366 15.422 11.4576L15.5 11.4596H21.605L14.8555 4.58057Z" fill="#0023AF"/>
</svg>
